<svg width="62.000000" height="62.000000" viewBox="0 0 62 62" fill="none" xmlns="http://www.w3.org/2000/svg" xmlns:xlink="http://www.w3.org/1999/xlink">
	<desc>
			Created with Pixso.
	</desc>
	<defs>
		<filter id="filter_790_998_dd" x="0.000000" y="0.000000" width="62.000000" height="62.000000" filterUnits="userSpaceOnUse" color-interpolation-filters="sRGB">
			<feFlood flood-opacity="0" result="BackgroundImageFix"/>
			<feColorMatrix in="SourceAlpha" type="matrix" values="0 0 0 0 0 0 0 0 0 0 0 0 0 0 0 0 0 0 127 0" result="hardAlpha"/>
			<feOffset dx="0" dy="0"/>
			<feGaussianBlur stdDeviation="5.33333"/>
			<feComposite in2="hardAlpha" operator="out" k2="-1" k3="1"/>
			<feColorMatrix type="matrix" values="0 0 0 0 0 0 0 0 0 0 0 0 0 0 0 0 0 0 0.059 0"/>
			<feBlend mode="normal" in2="BackgroundImageFix" result="effect_dropShadow_1"/>
			<feBlend mode="normal" in="SourceGraphic" in2="effect_dropShadow_1" result="shape"/>
		</filter>
		<clipPath id="clip790_1017">
			<rect id="photo_camera_24dp_1F1F1F_FILL1_wght400_GRAD0_opsz24 1" rx="0.000000" width="17.947369" height="17.947369" transform="translate(22.026306 22.026245)" fill="white" fill-opacity="0"/>
		</clipPath>
	</defs>
	<g filter="url(#filter_790_998_dd)">
		<circle id="Ellipse 25" cx="31.000000" cy="31.000000" r="15.000000" fill="#FFFFFF" fill-opacity="1.000000"/>
		<rect id="photo_camera_24dp_1F1F1F_FILL1_wght400_GRAD0_opsz24 1" rx="0.000000" width="17.947369" height="17.947369" transform="translate(22.026306 22.026245)" fill="#FFFFFF" fill-opacity="0"/>
		<g clip-path="url(#clip790_1017)">
			<path id="Vector" d="M31 35.34C31.98 35.34 32.82 34.99 33.51 34.3C34.2 33.61 34.55 32.77 34.55 31.78C34.55 30.8 34.2 29.96 33.51 29.27C32.82 28.58 31.98 28.23 31 28.23C30.01 28.23 29.17 28.58 28.48 29.27C27.79 29.96 27.44 30.8 27.44 31.78C27.44 32.77 27.79 33.61 28.48 34.3C29.17 34.99 30.01 35.34 31 35.34ZM31 33.76C30.44 33.76 29.98 33.57 29.59 33.19C29.21 32.8 29.02 32.34 29.02 31.78C29.02 31.23 29.21 30.76 29.59 30.38C29.98 30 30.44 29.81 31 29.81C31.55 29.81 32.01 30 32.4 30.38C32.78 30.76 32.97 31.23 32.97 31.78C32.97 32.34 32.78 32.8 32.4 33.19C32.01 33.57 31.55 33.76 31 33.76ZM24.68 38.1C24.25 38.1 23.87 37.95 23.56 37.64C23.25 37.33 23.1 36.96 23.1 36.52L23.1 27.05C23.1 26.61 23.25 26.24 23.56 25.93C23.87 25.62 24.25 25.47 24.68 25.47L27.17 25.47L28.63 23.89L33.36 23.89L34.82 25.47L37.31 25.47C37.75 25.47 38.12 25.62 38.43 25.93C38.74 26.24 38.89 26.61 38.89 27.05L38.89 36.52C38.89 36.96 38.74 37.33 38.43 37.64C38.12 37.95 37.75 38.1 37.31 38.1L24.68 38.1Z" fill="#E52710" fill-opacity="1.000000" fill-rule="nonzero"/>
		</g>
	</g>
</svg>
