<svg width="24" height="23" viewBox="0 0 24 23" fill="none" xmlns="http://www.w3.org/2000/svg">
<path fill-rule="evenodd" clip-rule="evenodd" d="M15.7367 3.16646C15.145 3.10212 14.4184 3.10213 13.5268 3.10214H10.5839C9.69224 3.10213 8.96563 3.10212 8.37399 3.16646C7.75616 3.23364 7.21964 3.37625 6.72906 3.7033C6.23848 4.03035 5.90048 4.47076 5.60084 5.01522C5.31389 5.53663 5.03444 6.20733 4.69153 7.03034L4.11247 8.4201L2.93979 7.54059C2.6235 7.30337 2.17478 7.36747 1.93756 7.68376C1.70034 8.00006 1.76444 8.44877 2.08074 8.68599L3.44798 9.71142L3.13685 10.1781C2.55786 11.0462 2.18385 11.607 1.98893 12.2507C1.794 12.8945 1.79415 13.5686 1.79438 14.612L1.79438 19.0901C1.79438 19.4854 2.1149 19.806 2.51026 19.806H4.65786C5.05323 19.806 5.37374 19.4854 5.37374 19.0901V18.1356C5.37374 17.6654 5.37526 17.3848 5.4023 17.1837C5.41637 17.0267 5.5499 16.9765 5.6149 16.971C5.81605 16.944 6.8126 16.9425 7.28279 16.9425H16.8278C17.298 16.9425 18.2945 16.944 18.4957 16.971C18.5608 16.9808 18.6948 17.0372 18.7082 17.1837C18.7352 17.3848 18.7368 17.6654 18.7368 18.1356V19.0901C18.7368 19.4854 19.0573 19.806 19.4526 19.806H21.6004C21.9957 19.806 22.3162 19.4854 22.3162 19.0901V14.612C22.3164 13.5686 22.3166 12.8945 22.1217 12.2507C21.9268 11.607 21.5527 11.0462 20.9737 10.1781L20.6627 9.71142L22.0299 8.68599C22.3462 8.44877 22.4103 8.00006 22.1731 7.68376C21.9359 7.36747 21.4872 7.30337 21.1708 7.54059L19.9981 8.4201L19.419 7.03028C19.0762 6.2074 18.7967 5.53656 18.5098 5.01522C18.2102 4.47076 17.8722 4.03035 17.3816 3.7033C16.8909 3.37625 16.3544 3.23364 15.7367 3.16646ZM6.44168 9.30642L5.39983 9.05234L5.99761 7.61768C6.3595 6.74915 6.60988 6.1508 6.85492 5.70553C7.09153 5.27561 7.29218 5.04847 7.52299 4.8946C7.7538 4.74072 8.04063 4.64287 8.52849 4.58982C9.03376 4.53488 9.68238 4.5339 10.6233 4.5339H13.4868C14.4277 4.5339 15.0763 4.53488 15.5816 4.58982C16.0695 4.64287 16.3563 4.74072 16.5871 4.8946C16.8179 5.04847 17.0186 5.27561 17.2552 5.70553C17.5002 6.1508 17.7506 6.74915 18.1125 7.61768L18.7102 9.05234L17.7027 9.30642H6.44168ZM17.7823 12.4086C18.3094 12.4086 18.7368 12.8359 18.7368 13.3631V13.3726C18.7368 13.8998 18.3094 14.3271 17.7823 14.3271C17.2552 14.3271 16.8278 13.8998 16.8278 13.3726V13.3631C16.8278 12.8359 17.2552 12.4086 17.7823 12.4086ZM7.28275 13.3631C7.28275 12.8359 6.8554 12.4086 6.32824 12.4086C5.80108 12.4086 5.37374 12.8359 5.37374 13.3631V13.3726C5.37374 13.8998 5.80108 14.3271 6.32824 14.3271C6.8554 14.3271 7.28275 13.8998 7.28275 13.3726V13.3631Z" fill="white"/>
</svg>
