<svg width="32.000000" height="32.000000" viewBox="0 0 32 32" fill="none" xmlns="http://www.w3.org/2000/svg" xmlns:xlink="http://www.w3.org/1999/xlink">
	<desc>
			Created with Pixso.
	</desc>
	<defs>
		<clipPath id="clip501_2476">
			<rect id="message-02-solid-rounded 1" rx="0.000000" width="17.285715" height="17.285715" transform="translate(7.357422 7.355469)" fill="white" fill-opacity="0"/>
		</clipPath>
	</defs>
	<circle id="Ellipse 24" cx="16.000000" cy="16.000000" r="16.000002" fill="#3FC1EB" fill-opacity="1.000000"/>
	<rect id="message-02-solid-rounded 1" rx="0.000000" width="17.285715" height="17.285715" transform="translate(7.357422 7.355469)" fill="#FFFFFF" fill-opacity="0"/>
	<g clip-path="url(#clip501_2476)">
		<path id="Vector" d="M14.3 8.24C15.41 8.16 16.57 8.16 17.69 8.24C21.17 8.47 23.93 11.28 24.15 14.79C24.2 15.45 24.2 16.13 24.15 16.79C23.93 20.3 21.17 23.11 17.69 23.34C16.57 23.41 15.41 23.41 14.3 23.34C13.87 23.31 13.4 23.21 12.99 23.04C12.81 22.96 12.69 22.91 12.6 22.88C12.54 22.92 12.45 22.98 12.33 23.07C11.73 23.51 10.97 23.83 9.89 23.8L9.85 23.8C9.64 23.79 9.42 23.79 9.24 23.75C9.02 23.71 8.75 23.61 8.58 23.32C8.4 23 8.47 22.69 8.54 22.49C8.61 22.3 8.73 22.08 8.85 21.85L8.86 21.82C9.22 21.15 9.32 20.6 9.13 20.23C8.49 19.27 7.92 18.09 7.84 16.79C7.79 16.13 7.79 15.45 7.84 14.79C8.06 11.28 10.82 8.47 14.3 8.24ZM12.95 15.23C12.53 15.23 12.19 15.57 12.19 15.99C12.19 16.41 12.53 16.75 12.95 16.75L12.95 16.75C13.38 16.75 13.72 16.41 13.72 15.99C13.72 15.57 13.38 15.23 12.95 15.23L12.95 15.23ZM15.99 15.23C15.57 15.23 15.23 15.57 15.23 15.99C15.23 16.41 15.57 16.75 15.99 16.75L16 16.75C16.42 16.75 16.76 16.41 16.76 15.99C16.76 15.57 16.42 15.23 16 15.23L15.99 15.23ZM19.04 15.23C18.62 15.23 18.27 15.57 18.27 15.99C18.27 16.41 18.62 16.75 19.04 16.75L19.04 16.75C19.46 16.75 19.8 16.41 19.8 15.99C19.8 15.57 19.46 15.23 19.04 15.23L19.04 15.23Z" fill="#FFFFFF" fill-opacity="1.000000" fill-rule="evenodd"/>
	</g>
</svg>
