<svg width="24" height="24" viewBox="0 0 24 24" fill="none" xmlns="http://www.w3.org/2000/svg">
<g opacity="1">
<path fill-rule="evenodd" clip-rule="evenodd" d="M1.89636 21.3607C1.89636 20.8335 2.314 20.4062 2.82917 20.4062H21.4854C22.0006 20.4062 22.4182 20.8335 22.4182 21.3607C22.4182 21.8879 22.0006 22.3152 21.4854 22.3152H2.82917C2.314 22.3152 1.89636 21.8879 1.89636 21.3607Z" fill="black"/>
<path fill-rule="evenodd" clip-rule="evenodd" d="M3.56675 5.37273C3.03959 5.37273 2.61224 5.80008 2.61224 6.32724C2.61224 6.85439 3.03959 7.28174 3.56675 7.28174H20.7478C21.275 7.28174 21.7023 6.85439 21.7023 6.32724C21.7023 5.80008 21.275 5.37273 20.7478 5.37273H20.2696C20.2668 4.83772 20.2552 4.25179 20.2097 3.91315C20.143 3.41742 19.9882 2.90885 19.5717 2.49226C19.155 2.07568 18.6465 1.92093 18.1508 1.85427C17.6967 1.79323 17.1357 1.79328 16.5114 1.79334H7.80321C7.17885 1.79328 6.61787 1.79323 6.1638 1.85427C5.66808 1.92093 5.1595 2.07568 4.74292 2.49226C4.32633 2.90885 4.17158 3.41742 4.10493 3.91315C4.05941 4.25179 4.04786 4.83772 4.04495 5.37273H3.56675ZM5.95396 5.37273C5.95646 4.86092 5.96543 4.40176 5.99692 4.16753C6.03373 3.89373 6.08609 3.84801 6.09229 3.84259L6.09325 3.84164C6.09867 3.83542 6.14438 3.78307 6.41818 3.74626C6.72968 3.70438 7.16009 3.70236 7.86202 3.70236H16.4526C17.1545 3.70236 17.5849 3.70438 17.8964 3.74626C18.1702 3.78307 18.2159 3.83542 18.2213 3.84164L18.2223 3.84258C18.2285 3.84801 18.2808 3.89373 18.3177 4.16753C18.3475 4.38983 18.3597 4.86418 18.364 5.37273H5.95396Z" fill="black"/>
<path fill-rule="evenodd" clip-rule="evenodd" d="M4.52124 5.61136C4.33138 5.61136 4.14929 5.68678 4.01503 5.82103C3.88078 5.95529 3.80536 6.13738 3.80536 6.32724V8.61805C3.80536 8.88802 3.80536 9.02301 3.88923 9.10688C3.9731 9.19075 4.10809 9.19075 4.37806 9.19075H5.47574C6.0029 9.19075 6.43025 9.6181 6.43025 10.1453C6.43025 10.6724 6.0029 11.0998 5.47574 11.0998H4.37806C4.10809 11.0998 3.9731 11.0998 3.88923 11.1837C3.80536 11.2675 3.80536 11.4025 3.80536 11.6725V21.5993C3.80536 21.9947 4.12587 22.3152 4.52124 22.3152H19.7933C19.9832 22.3152 20.1653 22.2398 20.2995 22.1055C20.4338 21.9713 20.5092 21.7892 20.5092 21.5993V11.6725C20.5092 11.4025 20.5092 11.2675 20.4253 11.1837C20.3415 11.0998 20.2064 11.0998 19.9365 11.0998H18.8388C18.3116 11.0998 17.8843 10.6724 17.8843 10.1453C17.8843 9.61809 18.3116 9.19075 18.8388 9.19075H19.9365C20.2064 9.19075 20.3415 9.19075 20.4253 9.10688C20.5092 9.02301 20.5092 8.88802 20.5092 8.61805V6.32724C20.5092 5.93187 20.1887 5.61136 19.7933 5.61136H4.52124ZM12.1573 14.9178C11.1795 14.9178 10.2483 15.8091 10.2483 17.0871V21.5993H8.33925V17.0871C8.33925 14.9146 9.97215 13.0088 12.1573 13.0088C14.3424 13.0088 15.9753 14.9146 15.9753 17.0871V21.5993H14.0663V17.0871C14.0663 15.8091 13.1351 14.9178 12.1573 14.9178ZM11.68 9.19075C11.1528 9.19075 10.7255 9.61809 10.7255 10.1453C10.7255 10.6724 11.1528 11.0998 11.68 11.0998H12.6345C13.1617 11.0998 13.589 10.6724 13.589 10.1453C13.589 9.6181 13.1617 9.19075 12.6345 9.19075H11.68Z" fill="black"/>
</g>
</svg>
