<svg width="12.541687" height="12.541992" viewBox="0 0 12.5417 12.542" fill="none" xmlns="http://www.w3.org/2000/svg" xmlns:xlink="http://www.w3.org/1999/xlink">
	<desc>
			Created with Pixso.
	</desc>
	<defs/>
	<path id="Vector" d="M6.27 0C5.94 0 5.67 0.13 5.43 0.32C5.2 0.49 4.95 0.74 4.66 1.04L4.64 1.06C4.34 1.36 4.08 1.47 3.67 1.47C3.62 1.47 3.56 1.47 3.48 1.47C3.3 1.47 3.06 1.46 2.85 1.48C2.54 1.5 2.16 1.59 1.87 1.88C1.58 2.17 1.5 2.55 1.48 2.86C1.46 3.06 1.47 3.3 1.47 3.48C1.47 3.56 1.47 3.62 1.47 3.67C1.47 4.08 1.36 4.34 1.06 4.64L1.04 4.66C0.74 4.95 0.49 5.2 0.32 5.43C0.13 5.67 0 5.94 0 6.27C0 6.59 0.13 6.86 0.32 7.1C0.49 7.33 0.74 7.58 1.04 7.87L1.06 7.89C1.25 8.09 1.34 8.22 1.39 8.33C1.45 8.45 1.47 8.6 1.47 8.86C1.47 8.91 1.47 8.97 1.47 9.05C1.47 9.23 1.46 9.47 1.48 9.68C1.5 9.99 1.59 10.37 1.88 10.66C2.17 10.95 2.55 11.03 2.86 11.06C3.06 11.07 3.3 11.07 3.48 11.06C3.56 11.06 3.62 11.06 3.67 11.06C3.93 11.06 4.07 11.08 4.19 11.13C4.3 11.18 4.42 11.26 4.61 11.44C4.64 11.48 4.7 11.54 4.76 11.6C4.89 11.75 5.06 11.93 5.23 12.08C5.47 12.29 5.83 12.54 6.27 12.54C6.7 12.54 7.06 12.29 7.3 12.08C7.47 11.93 7.64 11.75 7.78 11.6C7.84 11.54 7.89 11.48 7.93 11.44C8.11 11.26 8.23 11.18 8.34 11.13C8.46 11.08 8.6 11.06 8.86 11.06C8.91 11.06 8.97 11.06 9.05 11.06C9.23 11.07 9.47 11.07 9.68 11.06C9.98 11.03 10.36 10.95 10.65 10.66C10.94 10.37 11.03 9.99 11.05 9.68C11.07 9.47 11.07 9.23 11.06 9.05C11.06 8.98 11.06 8.91 11.06 8.86C11.06 8.6 11.09 8.45 11.14 8.33C11.19 8.22 11.28 8.09 11.48 7.89L11.5 7.87C11.79 7.58 12.04 7.33 12.21 7.1C12.4 6.86 12.54 6.59 12.54 6.27C12.54 5.94 12.4 5.67 12.21 5.43C12.04 5.2 11.79 4.95 11.5 4.66L11.48 4.64C11.28 4.44 11.19 4.32 11.14 4.2C11.09 4.08 11.06 3.93 11.06 3.67C11.06 3.62 11.06 3.56 11.06 3.48C11.07 3.3 11.07 3.06 11.05 2.85C11.03 2.54 10.94 2.16 10.65 1.87C10.36 1.58 9.98 1.5 9.68 1.48C9.47 1.46 9.23 1.47 9.05 1.47C8.97 1.47 8.91 1.47 8.86 1.47C8.46 1.47 8.19 1.36 7.89 1.06L7.87 1.04C7.58 0.74 7.33 0.49 7.1 0.32C6.86 0.13 6.59 0 6.27 0ZM8.46 5.18C8.67 4.94 8.64 4.57 8.39 4.36C8.14 4.15 7.78 4.19 7.57 4.43L5.51 6.89L4.9 6.35C4.66 6.14 4.3 6.16 4.08 6.4C3.87 6.64 3.89 7.01 4.13 7.22L5.18 8.16C5.29 8.26 5.45 8.32 5.61 8.31C5.76 8.29 5.91 8.22 6.01 8.1L8.46 5.18Z" fill="#3ABA56" fill-opacity="1.000000" fill-rule="evenodd"/>
</svg>
