<svg width="24" height="24" viewBox="0 0 24 24" fill="none" xmlns="http://www.w3.org/2000/svg">
<g opacity="1">
<path fill-rule="evenodd" clip-rule="evenodd" d="M1.45972 21.3607C1.45972 20.8335 1.88707 20.4062 2.41422 20.4062H21.5043C22.0315 20.4062 22.4588 20.8335 22.4588 21.3607C22.4588 21.8879 22.0315 22.3152 21.5043 22.3152H2.41422C1.88707 22.3152 1.45972 21.8879 1.45972 21.3607Z" fill="#010005"/>
<path fill-rule="evenodd" clip-rule="evenodd" d="M9.0957 9.19077C9.0957 8.66362 9.52305 8.23627 10.0502 8.23627H13.8682C14.3954 8.23627 14.8227 8.66362 14.8227 9.19077C14.8227 9.71793 14.3954 10.1453 13.8682 10.1453H10.0502C9.52305 10.1453 9.0957 9.71793 9.0957 9.19077Z" fill="#010005"/>
<path fill-rule="evenodd" clip-rule="evenodd" d="M9.0957 14.9178C9.0957 14.3906 9.52305 13.9633 10.0502 13.9633H13.8682C14.3954 13.9633 14.8227 14.3906 14.8227 14.9178C14.8227 15.445 14.3954 15.8723 13.8682 15.8723H10.0502C9.52305 15.8723 9.0957 15.445 9.0957 14.9178Z" fill="#010005"/>
<path fill-rule="evenodd" clip-rule="evenodd" d="M18.9608 3.81942L17.6517 3.03598C16.9295 2.60373 16.3226 2.24049 15.822 2.02824C15.3091 1.81078 14.7239 1.66972 14.1464 1.94722C13.5411 2.23798 13.3241 2.80144 13.2354 3.34009C13.1523 3.845 13.1523 4.51066 13.1523 5.2796V21.5994C13.1523 21.9948 13.4729 22.3153 13.8682 22.3153H20.5498C20.9451 22.3153 21.2656 21.9948 21.2656 21.5994V7.71039C21.2656 7.21585 21.2656 6.79133 21.2289 6.43694C21.1894 6.05643 21.1035 5.70416 20.9011 5.36469C20.701 5.02905 20.4303 4.77867 20.1126 4.54764C19.8108 4.3281 19.4233 4.09626 18.9608 3.81942ZM17.2047 7.28161C16.6799 7.28161 16.2545 7.70896 16.2545 8.23612C16.2545 8.76328 16.6799 9.19062 17.2047 9.19062H17.2133C17.7381 9.19062 18.1635 8.76328 18.1635 8.23612C18.1635 7.70896 17.7381 7.28161 17.2133 7.28161H17.2047ZM17.2047 11.0997C16.6799 11.0997 16.2545 11.527 16.2545 12.0542C16.2545 12.5813 16.6799 13.0087 17.2047 13.0087H17.2133C17.7381 13.0087 18.1635 12.5813 18.1635 12.0542C18.1635 11.527 17.7381 11.0997 17.2133 11.0997H17.2047ZM17.2047 14.9177C16.6799 14.9177 16.2545 15.345 16.2545 15.8722C16.2545 16.3994 16.6799 16.8267 17.2047 16.8267H17.2133C17.7381 16.8267 18.1635 16.3994 18.1635 15.8722C18.1635 15.345 17.7381 14.9177 17.2133 14.9177H17.2047Z" fill="#010005"/>
<path fill-rule="evenodd" clip-rule="evenodd" d="M4.95768 3.81954L6.26677 3.03609C6.98897 2.60384 7.59584 2.24061 8.09648 2.02835C8.60935 1.81091 9.19454 1.66984 9.77213 1.94734C10.3774 2.2381 10.5944 2.80155 10.6831 3.34021C10.7662 3.84512 10.7662 4.51078 10.7661 5.27972V21.5995C10.7661 21.9949 10.4456 22.3154 10.0502 22.3154H3.36871C2.97335 22.3154 2.65283 21.9949 2.65283 21.5995V7.71051C2.65281 7.21597 2.6528 6.79146 2.68961 6.43706C2.72914 6.05654 2.81497 5.70428 3.01735 5.36481C3.21745 5.02916 3.48824 4.77879 3.80585 4.54777C4.10768 4.32821 4.49509 4.09637 4.95768 3.81954ZM6.71375 7.28174C7.23856 7.28174 7.66399 7.70908 7.66399 8.23624C7.66399 8.7634 7.23856 9.19075 6.71375 9.19075H6.70522C6.18041 9.19075 5.75498 8.7634 5.75498 8.23624C5.75498 7.70908 6.18041 7.28174 6.70522 7.28174H6.71375ZM6.71375 11.0998C7.23856 11.0998 7.66399 11.5271 7.66399 12.0543C7.66399 12.5814 7.23856 13.0088 6.71375 13.0088H6.70522C6.18041 13.0088 5.75498 12.5814 5.75498 12.0543C5.75498 11.5271 6.18041 11.0998 6.70522 11.0998H6.71375ZM6.71375 14.9178C7.23856 14.9178 7.66399 15.3451 7.66399 15.8723C7.66399 16.3995 7.23856 16.8268 6.71375 16.8268H6.70522C6.18041 16.8268 5.75498 16.3995 5.75498 15.8723C5.75498 15.3451 6.18041 14.9178 6.70522 14.9178H6.71375Z" fill="#010005"/>
</g>
</svg>
