<svg width="12.543396" height="12.542969" viewBox="0 0 12.5434 12.543" fill="none" xmlns="http://www.w3.org/2000/svg" xmlns:xlink="http://www.w3.org/1999/xlink">
	<desc>
			Created with Pixso.
	</desc>
	<defs/>
	<path id="Vector" d="M6.26 0C6.88 0 7.36 0.46 7.67 1.08L8.69 3.15C8.73 3.22 8.8 3.31 8.91 3.39C9.02 3.47 9.13 3.52 9.2 3.53L11.06 3.84C11.73 3.96 12.3 4.29 12.48 4.86C12.66 5.43 12.4 6.03 11.91 6.51L11.91 6.51L10.47 7.97C10.41 8.03 10.35 8.14 10.3 8.28C10.26 8.42 10.26 8.55 10.28 8.63L10.28 8.63L10.69 10.43C10.86 11.18 10.81 11.93 10.28 12.32C9.75 12.71 9.02 12.54 8.36 12.14L6.62 11.1C6.55 11.06 6.42 11.02 6.27 11.02C6.12 11.02 5.99 11.06 5.91 11.1L5.91 11.1L4.17 12.14C3.51 12.54 2.79 12.71 2.25 12.32C1.73 11.93 1.67 11.18 1.84 10.43L2.25 8.63L2.25 8.63C2.27 8.55 2.27 8.42 2.23 8.28C2.19 8.14 2.12 8.03 2.06 7.97L0.62 6.51C0.14 6.03 -0.13 5.43 0.05 4.86C0.23 4.29 0.8 3.96 1.47 3.84L3.33 3.53L3.33 3.53C3.4 3.52 3.5 3.47 3.61 3.39C3.73 3.31 3.8 3.22 3.83 3.15L3.83 3.15L4.86 1.08L4.86 1.08C5.17 0.46 5.65 0 6.26 0Z" fill="#FFB404" fill-opacity="1.000000" fill-rule="nonzero"/>
</svg>
