<svg width="32.000000" height="32.000000" viewBox="0 0 32 32" fill="none" xmlns="http://www.w3.org/2000/svg" xmlns:xlink="http://www.w3.org/1999/xlink">
	<desc>
			Created with Pixso.
	</desc>
	<defs>
		<clipPath id="clip501_2472">
			<rect id="call-solid-rounded 1" rx="0.000000" width="17.285715" height="17.285715" transform="translate(7.357422 7.355469)" fill="white" fill-opacity="0"/>
		</clipPath>
	</defs>
	<circle id="Ellipse 24" cx="16.000000" cy="16.000000" r="16.000002" fill="#3ABA56" fill-opacity="1.000000"/>
	<rect id="call-solid-rounded 1" rx="0.000000" width="17.285715" height="17.285715" transform="translate(7.357422 7.355469)" fill="#FFFFFF" fill-opacity="0"/>
	<g clip-path="url(#clip501_2472)">
		<path id="Vector" d="M10.9 7.83C11.34 7.92 11.68 8.21 11.89 8.59L12.57 9.81C12.82 10.26 13.04 10.64 13.17 10.97C13.32 11.32 13.41 11.66 13.37 12.04C13.33 12.42 13.17 12.74 12.96 13.06C12.75 13.35 12.47 13.68 12.13 14.06L11.13 15.21C10.95 15.42 10.86 15.52 10.85 15.65C10.84 15.78 10.92 15.89 11.07 16.11C12.32 17.98 14.01 19.67 15.88 20.92C16.1 21.07 16.21 21.14 16.34 21.14C16.47 21.13 16.57 21.04 16.78 20.86L17.93 19.86C18.31 19.52 18.64 19.24 18.93 19.03C19.25 18.82 19.56 18.66 19.94 18.62C20.32 18.58 20.67 18.67 21.02 18.82C21.35 18.95 21.73 19.16 22.17 19.42L23.4 20.1C23.78 20.31 24.07 20.65 24.16 21.08C24.25 21.52 24.12 21.96 23.82 22.32C22.76 23.63 21.05 24.46 19.26 24.1C18.16 23.88 17.07 23.51 15.76 22.75C13.12 21.24 10.75 18.87 9.24 16.23C8.48 14.92 8.11 13.83 7.89 12.73C7.53 10.94 8.36 9.23 9.67 8.17C10.03 7.87 10.47 7.74 10.9 7.83Z" fill="#FFFFFF" fill-opacity="1.000000" fill-rule="nonzero"/>
	</g>
</svg>
